<?xml version="1.0" encoding="UTF-8"?>
<svg id="Layer_1" data-name="Layer 1" xmlns="http://www.w3.org/2000/svg" viewBox="0 0 212.25 250.06">
  <path d="M186.05,125.37c28.17,21.76,34.68,64.29,14.32,93.52-14.36,20.61-34.31,30.61-59.22,31.15-2.39.05-4.79,0-7.77-.25-6.67-2.01-12.94-3.28-18.77-5.66-15.31-6.26-26.25-17.62-34.86-31.72-.37-1.42-.63-2.61-1.18-3.65-4.64-8.73-6.44-18.2-6.57-27.9-.23-16.86,5.09-32.03,15.78-45.07,3.19-3.89,7.45-6.91,11.46-10.2,25.46,19.5,60.97,19.31,86.22-.26.33.06.46.05.6.03Z" style="fill: #366cb4; stroke-width: 0px;"/>
  <path d="M186.16,125.14c-.24.25-.37.26-.77-.04-18-14.12-37.89-18.08-59.72-13.36-10.04,2.17-18.65,7.36-27.5,12.54-8.37-6.07-13.84-14.23-19.17-22.84-4.11-9.54-6.86-19.13-7.11-29.28-.33-13.39,2.89-25.86,9.79-37.46,7.94-13.34,19.01-23,33.25-28.89,5.65-2.34,11.7-3.72,17.56-5.54,24.13-1.75,45.2,4.83,61.8,23.1,9.74,10.71,15.57,23.35,17.28,37.76,3.06,25.8-6.18,46.76-25.42,64.01Z" style="fill: #ffb6f6; stroke-width: 0px;"/>
  <path d="M79.02,101.75c5.31,8.3,10.78,16.47,19.22,22.66.48.51.62.78.75,1.06-3.77,3.42-8.02,6.43-11.21,10.33-10.69,13.04-16.01,28.21-15.78,45.07.13,9.7,1.93,19.17,6.57,27.9.55,1.04.82,2.23.94,3.54-.82-.39-1.41-.94-1.9-1.57-20.56-26.79-41.09-53.6-61.69-80.36-5.16-6.71-10.52-13.26-15.8-19.89C.08,82.01.02,53.54,0,25.07,0,16.96.13,8.84.52.82c3.02,3.68,5.69,7.29,8.41,10.87,10.49,13.77,20.97,27.56,31.52,41.29,8.87,11.55,17.79,23.06,26.78,34.52,3.8,4.85,7.85,9.5,11.79,14.25Z" style="fill: #00b8e9; stroke-width: 0px;"/>
  <path d="M.07,110.84c5.34,6.26,10.7,12.82,15.86,19.53,20.59,26.76,41.12,53.58,61.69,80.36.48.63,1.08,1.17,1.86,1.87,8.89,13.9,19.82,25.27,35.14,31.53,5.83,2.38,12.1,3.65,18.39,5.62-44.05.18-88.32.18-133,.18C0,203.44,0,157.32.07,110.84Z" style="fill: #771a7e; stroke-width: 0px;"/>
  <path d="M79,101.44c-3.92-4.44-7.96-9.09-11.77-13.94-8.99-11.46-17.91-22.97-26.78-34.52-10.55-13.73-21.02-27.52-31.52-41.29C6.21,8.12,3.54,4.51.8.65,1.81.3,2.86.12,3.91.13c42.61,0,85.23.03,128.21.1-5.5,1.87-11.54,3.26-17.19,5.59-14.24,5.89-25.31,15.55-33.25,28.89-6.9,11.59-10.12,24.07-9.79,37.46.25,10.14,3,19.74,7.11,29.28Z" style="fill: #e07cd7; stroke-width: 0px;"/>
  <path d="M99.24,125.59c-.38-.4-.51-.68-.71-1.08,8.5-5.41,17.11-10.6,27.15-12.77,21.82-4.73,41.71-.76,59.53,13.28-24.99,19.89-60.5,20.08-85.96.58Z" style="fill: #7c188d; stroke-width: 0px;"/>
</svg>