<svg fill="none" height="32" viewBox="0 0 32 32" width="32" xmlns="http://www.w3.org/2000/svg" xmlns:xlink="http://www.w3.org/1999/xlink"><filter id="a" color-interpolation-filters="sRGB" filterUnits="userSpaceOnUse" height="5.1517" width="5.1517" x="18.1908" y="1.92415"><feFlood flood-opacity="0" result="BackgroundImageFix"/><feBlend in="SourceGraphic" in2="BackgroundImageFix" mode="normal" result="shape"/><feGaussianBlur result="effect1_foregroundBlur_18_3767" stdDeviation=".15"/></filter><filter id="b" color-interpolation-filters="sRGB" filterUnits="userSpaceOnUse" height="10.3176" width="12.9801" x="17.085" y="13.7699"><feFlood flood-opacity="0" result="BackgroundImageFix"/><feBlend in="SourceGraphic" in2="BackgroundImageFix" mode="normal" result="shape"/><feColorMatrix in="SourceAlpha" result="hardAlpha" type="matrix" values="0 0 0 0 0 0 0 0 0 0 0 0 0 0 0 0 0 0 127 0"/><feOffset dx=".15" dy="-.15"/><feGaussianBlur stdDeviation=".5"/><feComposite in2="hardAlpha" k2="-1" k3="1" operator="arithmetic"/><feColorMatrix type="matrix" values="0 0 0 0 0.580392 0 0 0 0 0.25098 0 0 0 0 0.309804 0 0 0 1 0"/><feBlend in2="shape" mode="normal" result="effect1_innerShadow_18_3767"/></filter><filter id="c" color-interpolation-filters="sRGB" filterUnits="userSpaceOnUse" height="10.501" width="13.4292" x="1.55948" y="13.5033"><feFlood flood-opacity="0" result="BackgroundImageFix"/><feBlend in="SourceGraphic" in2="BackgroundImageFix" mode="normal" result="shape"/><feColorMatrix in="SourceAlpha" result="hardAlpha" type="matrix" values="0 0 0 0 0 0 0 0 0 0 0 0 0 0 0 0 0 0 127 0"/><feOffset dx="-.5" dy="-.5"/><feGaussianBlur stdDeviation=".5"/><feComposite in2="hardAlpha" k2="-1" k3="1" operator="arithmetic"/><feColorMatrix type="matrix" values="0 0 0 0 0.709804 0 0 0 0 0.341176 0 0 0 0 0.278431 0 0 0 1 0"/><feBlend in2="shape" mode="normal" result="effect1_innerShadow_18_3767"/></filter><filter id="d" color-interpolation-filters="sRGB" filterUnits="userSpaceOnUse" height="8.93764" width="11.4376" x="18.9062" y="13.8428"><feFlood flood-opacity="0" result="BackgroundImageFix"/><feBlend in="SourceGraphic" in2="BackgroundImageFix" mode="normal" result="shape"/><feGaussianBlur result="effect1_foregroundBlur_18_3767" stdDeviation="1"/></filter><filter id="e" color-interpolation-filters="sRGB" filterUnits="userSpaceOnUse" height="13.9008" width="16.2787" x="8.0726" y="2.5"><feFlood flood-opacity="0" result="BackgroundImageFix"/><feBlend in="SourceGraphic" in2="BackgroundImageFix" mode="normal" result="shape"/><feColorMatrix in="SourceAlpha" result="hardAlpha" type="matrix" values="0 0 0 0 0 0 0 0 0 0 0 0 0 0 0 0 0 0 127 0"/><feOffset dx=".5" dy=".25"/><feGaussianBlur stdDeviation=".75"/><feComposite in2="hardAlpha" k2="-1" k3="1" operator="arithmetic"/><feColorMatrix type="matrix" values="0 0 0 0 0.741176 0 0 0 0 0.498039 0 0 0 0 0.266667 0 0 0 1 0"/><feBlend in2="shape" mode="normal" result="effect1_innerShadow_18_3767"/></filter><filter id="f" color-interpolation-filters="sRGB" filterUnits="userSpaceOnUse" height="5.63125" width="6.59625" x="12.7138" y="9.10852"><feFlood flood-opacity="0" result="BackgroundImageFix"/><feBlend in="SourceGraphic" in2="BackgroundImageFix" mode="normal" result="shape"/><feColorMatrix in="SourceAlpha" result="hardAlpha" type="matrix" values="0 0 0 0 0 0 0 0 0 0 0 0 0 0 0 0 0 0 127 0"/><feOffset dx=".1" dy=".1"/><feGaussianBlur stdDeviation=".2"/><feComposite in2="hardAlpha" k2="-1" k3="1" operator="arithmetic"/><feColorMatrix type="matrix" values="0 0 0 0 0.823529 0 0 0 0 0.568627 0 0 0 0 0.384314 0 0 0 1 0"/><feBlend in2="shape" mode="normal" result="effect1_innerShadow_18_3767"/></filter><filter id="g" color-interpolation-filters="sRGB" filterUnits="userSpaceOnUse" height="8.91017" width="8.03389" x="4.89965" y="21.2714"><feFlood flood-opacity="0" result="BackgroundImageFix"/><feBlend in="SourceGraphic" in2="BackgroundImageFix" mode="normal" result="shape"/><feColorMatrix in="SourceAlpha" result="hardAlpha" type="matrix" values="0 0 0 0 0 0 0 0 0 0 0 0 0 0 0 0 0 0 127 0"/><feOffset dx=".15" dy=".3"/><feGaussianBlur stdDeviation=".3"/><feComposite in2="hardAlpha" k2="-1" k3="1" operator="arithmetic"/><feColorMatrix type="matrix" values="0 0 0 0 0.807843 0 0 0 0 0.407843 0 0 0 0 0.231373 0 0 0 1 0"/><feBlend in2="shape" mode="normal" result="effect1_innerShadow_18_3767"/><feColorMatrix in="SourceAlpha" result="hardAlpha" type="matrix" values="0 0 0 0 0 0 0 0 0 0 0 0 0 0 0 0 0 0 127 0"/><feOffset dx="-.15" dy="-.3"/><feGaussianBlur stdDeviation=".3"/><feComposite in2="hardAlpha" k2="-1" k3="1" operator="arithmetic"/><feColorMatrix type="matrix" values="0 0 0 0 0.72549 0 0 0 0 0.4 0 0 0 0 0.341176 0 0 0 1 0"/><feBlend in2="effect1_innerShadow_18_3767" mode="normal" result="effect2_innerShadow_18_3767"/></filter><filter id="h" color-interpolation-filters="sRGB" filterUnits="userSpaceOnUse" height="8.91017" width="8.03389" x="18.9934" y="21.2714"><feFlood flood-opacity="0" result="BackgroundImageFix"/><feBlend in="SourceGraphic" in2="BackgroundImageFix" mode="normal" result="shape"/><feColorMatrix in="SourceAlpha" result="hardAlpha" type="matrix" values="0 0 0 0 0 0 0 0 0 0 0 0 0 0 0 0 0 0 127 0"/><feOffset dx="-.15" dy="-.3"/><feGaussianBlur stdDeviation=".3"/><feComposite in2="hardAlpha" k2="-1" k3="1" operator="arithmetic"/><feColorMatrix type="matrix" values="0 0 0 0 0.682353 0 0 0 0 0.356863 0 0 0 0 0.32549 0 0 0 1 0"/><feBlend in2="shape" mode="normal" result="effect1_innerShadow_18_3767"/><feColorMatrix in="SourceAlpha" result="hardAlpha" type="matrix" values="0 0 0 0 0 0 0 0 0 0 0 0 0 0 0 0 0 0 127 0"/><feOffset dx=".15" dy=".3"/><feGaussianBlur stdDeviation=".3"/><feComposite in2="hardAlpha" k2="-1" k3="1" operator="arithmetic"/><feColorMatrix type="matrix" values="0 0 0 0 0.815686 0 0 0 0 0.384314 0 0 0 0 0.176471 0 0 0 1 0"/><feBlend in2="effect1_innerShadow_18_3767" mode="normal" result="effect2_innerShadow_18_3767"/></filter><filter id="i" color-interpolation-filters="sRGB" filterUnits="userSpaceOnUse" height="2.39844" width="3.16519" x="13.9385" y="9.62415"><feFlood flood-opacity="0" result="BackgroundImageFix"/><feBlend in="SourceGraphic" in2="BackgroundImageFix" mode="normal" result="shape"/><feGaussianBlur result="effect1_foregroundBlur_18_3767" stdDeviation=".25"/></filter><filter id="j" color-interpolation-filters="sRGB" filterUnits="userSpaceOnUse" height="4.82441" width="4.25037" x="8.60794" y="21.5571"><feFlood flood-opacity="0" result="BackgroundImageFix"/><feBlend in="SourceGraphic" in2="BackgroundImageFix" mode="normal" result="shape"/><feGaussianBlur result="effect1_foregroundBlur_18_3767" stdDeviation=".375"/></filter><radialGradient id="k" cx="0" cy="0" gradientTransform="matrix(-1.99999794 -1.68749829 .50703365 -.60092876 13.5 3.18665)" gradientUnits="userSpaceOnUse" r="1"><stop offset="0" stop-color="#f4a161"/><stop offset="1" stop-color="#f4a161" stop-opacity="0"/></radialGradient><radialGradient id="l" cx="0" cy="0" gradientTransform="matrix(-.35254041 2.09289563 -2.09289563 -.35254041 11.3057 4.5)" gradientUnits="userSpaceOnUse" r="1"><stop offset=".713086" stop-color="#ce7032"/><stop offset="1" stop-color="#ce7032" stop-opacity="0"/></radialGradient><radialGradient id="m" cx="0" cy="0" gradientTransform="matrix(-1.87200863 -1.87200863 2.30072041 -2.30072041 11.3057 4.5)" gradientUnits="userSpaceOnUse" r="1"><stop offset=".841414" stop-color="#c17b3b" stop-opacity="0"/><stop offset=".979133" stop-color="#c17b3b"/></radialGradient><radialGradient id="n" cx="0" cy="0" gradientTransform="matrix(-.35058794 2.09289912 -2.09289912 -.35058794 21.0625 4.5)" gradientUnits="userSpaceOnUse" r="1"><stop offset=".659151" stop-color="#dc692a"/><stop offset="1" stop-color="#dc692a" stop-opacity="0"/></radialGradient><radialGradient id="o" cx="0" cy="0" gradientTransform="matrix(-2.5546764 -1.89844645 1.55989403 -2.09909764 21.3828 4.58508)" gradientUnits="userSpaceOnUse" r="1"><stop offset=".828064" stop-color="#b56e32" stop-opacity="0"/><stop offset=".923978" stop-color="#b56e32"/></radialGradient><linearGradient id="p" gradientUnits="userSpaceOnUse" x1="22.8925" x2="22.1641" y1="3.5929" y2="3.9679"><stop offset="0" stop-color="#ffaf7e"/><stop offset="1" stop-color="#ffaf7e" stop-opacity="0"/></linearGradient><radialGradient id="q" cx="0" cy="0" gradientTransform="matrix(1.26562871 1.48437712 -2.74370335 2.33937163 10.375 3.48352)" gradientUnits="userSpaceOnUse" r="1"><stop offset="0" stop-color="#fecc85"/><stop offset="1" stop-color="#dca86a"/></radialGradient><radialGradient id="r" cx="0" cy="0" gradientTransform="matrix(2.39062466 .28991718 -.28991718 2.39062466 20.1406 4.2804)" gradientUnits="userSpaceOnUse" r="1"><stop offset=".617592" stop-color="#e8a869" stop-opacity="0"/><stop offset=".906457" stop-color="#e8a869"/></radialGradient><radialGradient id="s" cx="0" cy="0" gradientTransform="matrix(.49837157 -5.06304096 7.1036191 .69923231 28.5912 19.9011)" gradientUnits="userSpaceOnUse" r="1"><stop offset=".175294" stop-color="#983c50"/><stop offset="1" stop-color="#983c50" stop-opacity="0"/></radialGradient><linearGradient id="t" gradientUnits="userSpaceOnUse" x1="26.0987" x2="25.9033" y1="12.6361" y2="14.4759"><stop offset="0" stop-color="#eb9251"/><stop offset="1" stop-color="#eb9251" stop-opacity="0"/></linearGradient><radialGradient id="u" cx="0" cy="0" gradientTransform="matrix(-.23878915 2.48856982 -1.63941007 -.15730856 31.5998 13.6726)" gradientUnits="userSpaceOnUse" r="1"><stop offset="0" stop-color="#ffb075"/><stop offset="1" stop-color="#ffb075" stop-opacity="0"/></radialGradient><radialGradient id="v" cx="0" cy="0" gradientTransform="matrix(2.41199734 -2.49665844 3.37173238 3.25739773 23.9116 17.6313)" gradientUnits="userSpaceOnUse" r="1"><stop offset=".845647" stop-color="#ffaa6f"/><stop offset="1" stop-color="#ffaa6f" stop-opacity="0"/></radialGradient><linearGradient id="w" gradientUnits="userSpaceOnUse" x1="7.96543" x2="7.93192" y1="19.1984" y2="21.5418"><stop offset=".202564" stop-color="#a2643b"/><stop offset="1" stop-color="#a2643b" stop-opacity="0"/></linearGradient><radialGradient id="x" cx="0" cy="0" gradientTransform="matrix(-4.53876578 2.22774377 -1.59757464 -3.25487033 7.49338 25.2776)" gradientUnits="userSpaceOnUse" r="1"><stop offset=".15499" stop-color="#bb5124"/><stop offset="1" stop-color="#bb5124" stop-opacity="0"/></radialGradient><radialGradient id="y" cx="0" cy="0" gradientTransform="matrix(1.4534137 .77775966 -.74288756 1.38824756 2.5756 22.3156)" gradientUnits="userSpaceOnUse" r="1"><stop offset="0" stop-color="#e38b4d"/><stop offset="1" stop-color="#e38b4d" stop-opacity="0"/></radialGradient><radialGradient id="z" cx="0" cy="0" gradientTransform="matrix(-1.64046673 -1.33070083 2.64548859 -3.26131607 8.70697 24.398)" gradientUnits="userSpaceOnUse" r="1"><stop offset=".92332" stop-color="#d77c46"/><stop offset="1" stop-color="#d77c46" stop-opacity="0"/></radialGradient><linearGradient id="A" gradientUnits="userSpaceOnUse" x1="18.0736" x2="18.0736" y1="27.723" y2="15.0739"><stop offset="0" stop-color="#ca6645"/><stop offset="1" stop-color="#d57e40"/></linearGradient><radialGradient id="B" cx="0" cy="0" gradientTransform="matrix(-6.21827639 7.81268562 -5.09154215 -4.05246262 22.8569 16.5089)" gradientUnits="userSpaceOnUse" r="1"><stop offset="0" stop-color="#ffa66f"/><stop offset="1" stop-color="#ffa66f" stop-opacity="0"/></radialGradient><radialGradient id="C" cx="0" cy="0" gradientTransform="matrix(0 3.87977 -6.87021 0 15.9619 14.1704)" gradientUnits="userSpaceOnUse" r="1"><stop offset=".465753" stop-color="#b54322"/><stop offset="1" stop-color="#b54322" stop-opacity="0"/></radialGradient><radialGradient id="D" cx="0" cy="0" gradientTransform="matrix(-6.2183472 -8.71619224 9.59155616 -6.84285348 16.4792 22.0362)" gradientUnits="userSpaceOnUse" r="1"><stop offset=".714895" stop-color="#a3633d" stop-opacity="0"/><stop offset=".923718" stop-color="#a3633d"/></radialGradient><radialGradient id="E" cx="0" cy="0" gradientTransform="matrix(2.60423045 -.37203281 .9566558 6.69659259 8.40079 22.7271)" gradientUnits="userSpaceOnUse" r="1"><stop offset="0" stop-color="#c7733e"/><stop offset="1" stop-color="#c7733e" stop-opacity="0"/></radialGradient><radialGradient id="F" cx="0" cy="0" gradientTransform="matrix(1.64757251 2.39163972 -1.87110041 1.2889791 11.8288 27.0852)" gradientUnits="userSpaceOnUse" r="1"><stop offset=".254938" stop-color="#a03434"/><stop offset="1" stop-color="#a03434" stop-opacity="0"/></radialGradient><radialGradient id="G" cx="0" cy="0" gradientTransform="matrix(-2.60425357 2.47134436 -1.42501788 -1.50165552 20.4653 26.8195)" gradientUnits="userSpaceOnUse" r="1"><stop offset=".317149" stop-color="#a14750"/><stop offset="1" stop-color="#a14750" stop-opacity="0"/></radialGradient><radialGradient id="H" cx="0" cy="0" gradientTransform="matrix(0 11.4908 -11.4908 0 15.9619 17.3061)" gradientUnits="userSpaceOnUse" r="1"><stop offset=".839082" stop-color="#ac4f52" stop-opacity="0"/><stop offset="1" stop-color="#ac4f52"/></radialGradient><radialGradient id="I" cx="0" cy="0" gradientTransform="matrix(1.22239452 -2.41820967 1.7406833 .87990787 21.9534 23.6307)" gradientUnits="userSpaceOnUse" r="1"><stop offset=".538765" stop-color="#dc6a27"/><stop offset="1" stop-color="#dc6a27" stop-opacity="0"/></radialGradient><linearGradient id="J" gradientUnits="userSpaceOnUse" x1="15.9619" x2="15.9619" y1="16.5089" y2="24.6936"><stop offset="0" stop-color="#e6a04e"/><stop offset="1" stop-color="#ffc286"/></linearGradient><radialGradient id="K" cx="0" cy="0" gradientTransform="matrix(0 8.55676 -8.55676 0 15.9619 18.8474)" gradientUnits="userSpaceOnUse" r="1"><stop offset=".588337" stop-color="#e2a48d" stop-opacity="0"/><stop offset="1" stop-color="#e2a48d"/></radialGradient><radialGradient id="L" cx="0" cy="0" gradientTransform="matrix(-3.72031445 2.01962966 -2.01962966 -3.72031445 21.7408 18.7942)" gradientUnits="userSpaceOnUse" r="1"><stop offset="0" stop-color="#ffd992"/><stop offset="1" stop-color="#ffd992" stop-opacity="0"/></radialGradient><radialGradient id="M" cx="0" cy="0" gradientTransform="matrix(2.17904676 -1.16924677 1.98996019 3.70855531 10.5001 24.7999)" gradientUnits="userSpaceOnUse" r="1"><stop offset=".545951" stop-color="#bc8a66"/><stop offset="1" stop-color="#bc8a66" stop-opacity="0"/></radialGradient><linearGradient id="N" gradientUnits="userSpaceOnUse" x1="15.9619" x2="15.9619" y1="3.88918" y2="16.1508"><stop offset="0" stop-color="#ec9d55"/><stop offset="1" stop-color="#de7944"/></linearGradient><radialGradient id="O" cx="0" cy="0" gradientTransform="matrix(-3.07687309 5.55677128 -6.61060309 -3.6603966 20.8363 7.65492)" gradientUnits="userSpaceOnUse" r="1"><stop offset="0" stop-color="#ffbe88"/><stop offset="1" stop-color="#ffbe88" stop-opacity="0"/></radialGradient><radialGradient id="P" cx="0" cy="0" gradientTransform="matrix(1.69917711 11.89424324 -13.74831965 1.96404509 15.4633 5.49651)" gradientUnits="userSpaceOnUse" r="1"><stop offset=".659866" stop-color="#ba5137" stop-opacity="0"/><stop offset="1" stop-color="#ba5137"/></radialGradient><radialGradient id="Q" cx="0" cy="0" gradientTransform="matrix(-1.67183638 4.01238067 -3.33573826 -1.38990017 15.1923 13.0264)" gradientUnits="userSpaceOnUse" r="1"><stop offset=".345414" stop-color="#ce6d54"/><stop offset="1" stop-color="#ce6d54" stop-opacity="0"/></radialGradient><linearGradient id="R"><stop offset="0" stop-color="#635556"/><stop offset="1" stop-color="#452b30"/></linearGradient><radialGradient id="S" cx="0" cy="0" gradientTransform="matrix(-.63410668 .48220339 -.48220339 -.63410668 13.9619 8.17156)" gradientUnits="userSpaceOnUse" r="1" xlink:href="#R"/><radialGradient id="T" cx="0" cy="0" gradientTransform="matrix(-.36738665 .28128476 -.28128476 -.36738665 18.8846 8.18304)" gradientUnits="userSpaceOnUse" r="1" xlink:href="#R"/><radialGradient id="U" cx="0" cy="0" gradientTransform="matrix(0 5.85139 -10.7808 0 15.9619 9.84996)" gradientUnits="userSpaceOnUse" r="1"><stop offset=".20438" stop-color="#ffbd96"/><stop offset=".965215" stop-color="#d27067"/></radialGradient><radialGradient id="V" cx="0" cy="0" gradientTransform="matrix(-1.76074953 1.17028221 -1.56985836 -2.36193233 19.2101 10.0171)" gradientUnits="userSpaceOnUse" r="1"><stop offset="0" stop-color="#ffdfaf"/><stop offset="1" stop-color="#ffdfaf" stop-opacity="0"/></radialGradient><linearGradient id="W" gradientUnits="userSpaceOnUse" x1="3.42395" x2="3.67074" y1="-.19386" y2="8.69267"><stop offset="0" stop-color="#e27749"/><stop offset="1" stop-color="#da835d"/></linearGradient><radialGradient id="X" cx="0" cy="0" gradientTransform="matrix(4.58873278 -.35804279 .56635681 7.25851811 -.484635 4.61123)" gradientUnits="userSpaceOnUse" r="1"><stop offset="0" stop-color="#e68f58"/><stop offset="1" stop-color="#e68f58" stop-opacity="0"/></radialGradient><linearGradient id="Y" gradientUnits="userSpaceOnUse" x1="25.532" x2="25.532" y1="20.3085" y2="28.8085"><stop offset="0" stop-color="#e17341"/><stop offset="1" stop-color="#d48461"/></linearGradient><radialGradient id="Z" cx="0" cy="0" gradientTransform="matrix(-.76625287 .91613568 -1.92842287 -1.61292655 27.3222 21.2155)" gradientUnits="userSpaceOnUse" r="1"><stop offset="0" stop-color="#fd9c79"/><stop offset="1" stop-color="#fd9c79" stop-opacity="0"/></radialGradient><linearGradient id="aa" gradientUnits="userSpaceOnUse" x1="1.80588" x2="1.84625" y1=".855428" y2="5.91815"><stop offset="0" stop-color="#ffbe7b"/><stop offset="1" stop-color="#ffdda2"/></linearGradient><linearGradient id="ab" gradientUnits="userSpaceOnUse" x1="24.5207" x2="24.5543" y1="24.0826" y2="29.0053"><stop offset="0" stop-color="#f7b678"/><stop offset="1" stop-color="#ffdda2"/></linearGradient><linearGradient id="ac" gradientUnits="userSpaceOnUse" x1="15.9619" x2="15.9619" y1="9.71719" y2="11.3483"><stop offset="0" stop-color="#49393f"/><stop offset="1" stop-color="#45323f"/></linearGradient><radialGradient id="ad" cx="0" cy="0" gradientTransform="matrix(-1.37347 0 0 -.616666 17.1455 10.0553)" gradientUnits="userSpaceOnUse" r="1"><stop offset="0" stop-color="#635759"/><stop offset="1" stop-color="#635759" stop-opacity="0"/></radialGradient><circle cx="11.3057" cy="4.5" fill="#de904c" r="2.5"/><circle cx="11.3057" cy="4.5" fill="url(#k)" r="2.5"/><circle cx="11.3057" cy="4.5" fill="url(#l)" r="2.5"/><circle cx="11.3057" cy="4.5" fill="url(#m)" r="2.5"/><circle cx="20.7119" cy="4.5" fill="#d68640" r="2.5"/><circle cx="20.7119" cy="4.5" fill="url(#n)" r="2.5"/><circle cx="20.7119" cy="4.5" fill="url(#o)" r="2.5"/><g filter="url(#a)"><circle cx="20.7666" cy="4.5" r="2.12585" stroke="url(#p)" stroke-width=".3"/></g><circle cx="11.3057" cy="4.57031" fill="url(#q)" r="1.61804"/><circle cx="20.7119" cy="4.57031" fill="#f9bf76" r="1.61804"/><circle cx="20.7119" cy="4.57031" fill="url(#r)" r="1.61804"/><g filter="url(#b)"><rect fill="#de773d" height="6" rx="3" transform="matrix(.85365172 .52084426 -.52084426 .85365172 9.458542 -8.06855)" width="14" x="19.087" y="12.7969"/><rect fill="url(#s)" height="6" rx="3" transform="matrix(.85365172 .52084426 -.52084426 .85365172 9.458542 -8.06855)" width="14" x="19.087" y="12.7969"/><rect fill="url(#t)" height="6" rx="3" transform="matrix(.85365172 .52084426 -.52084426 .85365172 9.458542 -8.06855)" width="14" x="19.087" y="12.7969"/><rect fill="url(#u)" height="6" rx="3" transform="matrix(.85365172 .52084426 -.52084426 .85365172 9.458542 -8.06855)" width="14" x="19.087" y="12.7969"/><rect fill="url(#v)" height="6" rx="3" transform="matrix(.85365172 .52084426 -.52084426 .85365172 9.458542 -8.06855)" width="14" x="19.087" y="12.7969"/></g><g filter="url(#c)"><rect fill="#d77940" height="6" rx="3" transform="matrix(.8660254 -.5 .5 .8660254 -9.823978 3.147815)" width="14" x=".961914" y="19.9057"/><rect fill="url(#w)" height="6" rx="3" transform="matrix(.8660254 -.5 .5 .8660254 -9.823978 3.147815)" width="14" x=".961914" y="19.9057"/><rect fill="url(#x)" height="6" rx="3" transform="matrix(.8660254 -.5 .5 .8660254 -9.823978 3.147815)" width="14" x=".961914" y="19.9057"/><rect fill="url(#y)" height="6" rx="3" transform="matrix(.8660254 -.5 .5 .8660254 -9.823978 3.147815)" width="14" x=".961914" y="19.9057"/><rect fill="url(#z)" height="6" rx="3" transform="matrix(.8660254 -.5 .5 .8660254 -9.823978 3.147815)" width="14" x=".961914" y="19.9057"/></g><g filter="url(#d)"><path d="m21.4062 16.3429 6.4376 3.9375" stroke="#fa9c66" stroke-linecap="round"/></g><circle cx="15.9619" cy="20.7969" fill="url(#A)" r="8"/><circle cx="15.9619" cy="20.7969" fill="url(#B)" r="8"/><circle cx="15.9619" cy="20.7969" fill="url(#C)" r="8"/><circle cx="15.9619" cy="20.7969" fill="url(#D)" r="8"/><circle cx="15.9619" cy="20.7969" fill="url(#E)" r="8"/><circle cx="15.9619" cy="20.7969" fill="url(#F)" r="8"/><circle cx="15.9619" cy="20.7969" fill="url(#G)" r="8"/><circle cx="15.9619" cy="20.7969" fill="url(#H)" r="8"/><circle cx="15.9619" cy="20.7969" fill="url(#I)" r="8"/><circle cx="15.9619" cy="21.7969" fill="url(#J)" r="5"/><circle cx="15.9619" cy="21.7969" fill="url(#K)" r="5"/><circle cx="15.9619" cy="21.7969" fill="url(#L)" r="5"/><circle cx="15.9619" cy="21.7969" fill="url(#M)" r="5"/><g filter="url(#e)"><path d="m23.8513 10.1664c0 4.4676-3.5322 5.9844-7.8894 5.9844-4.3571 0-7.8893-1.5168-7.8893-5.9844 0-4.46762 4.0222-7.6664 7.8893-7.6664 3.9859 0 7.8894 3.19878 7.8894 7.6664z" fill="url(#N)"/><path d="m23.8513 10.1664c0 4.4676-3.5322 5.9844-7.8894 5.9844-4.3571 0-7.8893-1.5168-7.8893-5.9844 0-4.46762 4.0222-7.6664 7.8893-7.6664 3.9859 0 7.8894 3.19878 7.8894 7.6664z" fill="url(#O)"/><path d="m23.8513 10.1664c0 4.4676-3.5322 5.9844-7.8894 5.9844-4.3571 0-7.8893-1.5168-7.8893-5.9844 0-4.46762 4.0222-7.6664 7.8893-7.6664 3.9859 0 7.8894 3.19878 7.8894 7.6664z" fill="url(#P)"/><path d="m23.8513 10.1664c0 4.4676-3.5322 5.9844-7.8894 5.9844-4.3571 0-7.8893-1.5168-7.8893-5.9844 0-4.46762 4.0222-7.6664 7.8893-7.6664 3.9859 0 7.8894 3.19878 7.8894 7.6664z" fill="url(#Q)"/></g><circle cx="13.4619" cy="8.42188" fill="url(#S)" r=".5"/><circle cx="18.4619" cy="8.42188" fill="url(#T)" r=".5"/><g filter="url(#f)"><path d="m15.9619 9.10852c-.4727 0-1.5059.00001-2.515.65625-.8505.55313-.9291 1.87503-.4004 3.01563.5286 1.1406 1.4257 1.8594 2.9154 1.8594 1.4898 0 2.3869-.7188 2.9155-1.8594s.4501-2.4625-.4005-3.01563c-1.0091-.65624-2.0423-.65625-2.515-.65625z" fill="url(#U)"/><path d="m15.9619 9.10852c-.4727 0-1.5059.00001-2.515.65625-.8505.55313-.9291 1.87503-.4004 3.01563.5286 1.1406 1.4257 1.8594 2.9154 1.8594 1.4898 0 2.3869-.7188 2.9155-1.8594s.4501-2.4625-.4005-3.01563c-1.0091-.65624-2.0423-.65625-2.515-.65625z" fill="url(#V)"/></g><g filter="url(#g)"><rect fill="url(#W)" height="8.5" rx="3.5" transform="matrix(-.872609 .488419 .488419 .872609 9.89496 20.3085)" width="7"/><rect fill="url(#X)" height="8.5" rx="3.5" transform="matrix(-.872609 .488419 .488419 .872609 9.89496 20.3085)" width="7"/></g><g filter="url(#h)"><rect fill="url(#Y)" height="8.5" rx="3.5" transform="matrix(.87260941 .4884187 -.4884187 .87260941 12.725721 -8.173729)" width="7" x="22.032" y="20.3085"/></g><rect fill="url(#Z)" height="8.5" rx="3.5" transform="matrix(.87260941 .4884187 -.4884187 .87260941 12.725721 -8.173729)" width="7" x="22.032" y="20.3085"/><rect fill="url(#aa)" height="5.5" rx="2" transform="matrix(-.872609 .488419 .488419 .872609 9.34552 22.3707)" width="4"/><rect fill="url(#ab)" height="5.5" rx="2" transform="matrix(.87260941 .4884187 -.4884187 .87260941 13.802926 -8.179361)" width="4" x="22.5814" y="22.3707"/><g filter="url(#i)"><path d="m14.8364 10.1241c-.2935 0-.4985.2727-.3463.5237.1706.2816.4424.5978.8465.8263.1144.0647.2546.0647.369 0 .404-.2285.6758-.5447.8465-.8263.1521-.251-.0528-.5237-.3463-.5237z" fill="#d18a74"/></g><path d="m15.2133 9.81946c-.3208 0-.5449.29814-.3785.57254.1865.3078.4836.6535.9254.9033.1251.0707.2783.0707.4034 0 .4418-.2498.7389-.5955.9255-.9033.1663-.2744-.0578-.57254-.3786-.57254z" fill="url(#ac)"/><path d="m15.2133 9.81946c-.3208 0-.5449.29814-.3785.57254.1865.3078.4836.6535.9254.9033.1251.0707.2783.0707.4034 0 .4418-.2498.7389-.5955.9255-.9033.1663-.2744-.0578-.57254-.3786-.57254z" fill="url(#ad)"/><g filter="url(#j)"><path d="m9.608 22.5571c.1837.0842.6429.3628 1.0103.8037s.9797 1.5308 1.2399 2.0206" stroke="#fa9e75" stroke-linecap="round" stroke-width=".5"/></g></svg>