<svg xmlns="http://www.w3.org/2000/svg" xmlns:xlink="http://www.w3.org/1999/xlink" version="1.1" x="0px" y="0px" viewBox="0 0 256 256" enable-background="new 0 0 256 256" xml:space="preserve">
<metadata> Svg Vector Icons : http://www.onlinewebfonts.com/icon </metadata>
<g><g><g><path fill="#000000" d="M36.8,10.7c-13,2.6-23.5,13.2-26,26.4c-1,5.1-1,176.7,0,181.7c2.1,11,9.9,20.4,20.3,24.7c6.2,2.5,2.5,2.4,97.1,2.4c95.4,0,90.7,0.1,97.3-2.5c7.8-3.2,14.9-10.3,18.1-18.2c2.7-6.5,2.5-1.9,2.5-97.3c0-95.3,0.1-90.8-2.5-97.3c-4.1-10.2-13.6-17.9-24.6-20C214,9.8,41.5,9.8,36.8,10.7z M140.3,115.7c94.9,94.9,95.1,95.1,95.1,96.9c0,1-0.3,3.3-0.7,5.1c-2.3,10.7-10.8,17.7-21.6,17.7h-2.4l-95-95C20.8,45.4,20.7,45.3,20.7,43.5c0-8.5,5.1-17,12.1-20.5c3.3-1.6,5.9-2.2,9.8-2.3l2.8,0L140.3,115.7z M172.4,83.7l63,63l-0.1,24.3l-0.1,24.3L147.9,108L60.5,20.6H85h24.4L172.4,83.7z M204.6,51.4l30.8,30.8v24.3c0,13.4-0.1,24.3-0.3,24.3c-0.5,0-109.8-109.3-109.8-109.8c0-0.2,10.9-0.4,24.3-0.4h24.3L204.6,51.4z M217.9,21.1c6,1.1,12,5.7,14.7,11.2c2.4,4.9,2.8,8.1,2.7,22l-0.1,12.4l-23-23l-23-23h13.2C209.6,20.6,216.6,20.9,217.9,21.1z M171,235.3l-24.3,0.1l-63-63l-63-63V84.9V60.5l87.3,87.3l87.3,87.3L171,235.3z M76.1,179.9c30.1,30.1,54.7,54.9,54.7,55.1c0,0.2-10.9,0.4-24.3,0.4H82.2l-30.7-30.7l-30.8-30.8v-24.3c0-13.4,0.1-24.3,0.3-24.3C21.2,125.2,46,149.9,76.1,179.9z M53.8,235.3c-7.4,0-14.1-0.1-15.5-0.4c-7.4-1.3-13.4-6.7-16.3-14.6c-0.9-2.5-1-3.7-1.2-17l-0.2-14.3l23,23l23.1,23L53.8,235.3z"/></g></g></g>
</svg>